<svg width="512" height="512" viewBox="0 0 512 512" fill="none" xmlns="http://www.w3.org/2000/svg">
<path d="M393.3 161.33L334.532 76.438C330.176 70.1593 324.387 65.0089 317.644 61.4138C310.901 57.8187 303.398 55.8823 295.757 55.765L184.23 54.165H184C126.421 54.165 82.243 63.796 53.79 110.799C27.3 154.551 16 229.08 16 360V376H52.557L29.024 496H61.634L85.167 376H96C122.132 376.233 147.307 366.179 166.088 348.008C183.067 331.762 195.314 309.536 201.507 283.734L201.563 283.502L229.006 152H196.316L170.337 276.488C162.425 309.168 138.766 344 96 344H48.06C48.929 230.734 59.242 163.581 81.165 127.366C99.565 96.966 126.46 86.175 183.889 86.16L295.297 87.76C297.844 87.7988 300.345 88.4441 302.593 89.6425C304.841 90.8409 306.77 92.5579 308.222 94.651L374.7 190.67L464 205.554V222.513L449.108 301.934C444.713 325.375 437.2 337.183 406.39 340.884L280.084 362.493L279.249 496H311.249L311.916 389.507L410.616 372.607C432.976 369.858 449.473 362.652 461.042 350.584C470.932 340.266 476.951 327.084 480.561 307.832L496 225.487V178.446L393.3 161.33Z" fill="#198754"/>
</svg>
